<?xml version="1.0" encoding="UTF-8" standalone="no"?>
<svg
   id="Layer_1"
   version="1.1"
   viewBox="0 0 285 285"
   width="285mm"
   height="285mm"
   sodipodi:docname="buttonPlate.svg"
   inkscape:version="1.4.2 (ebf0e940d0, 2025-05-08)"
   xmlns:inkscape="http://www.inkscape.org/namespaces/inkscape"
   xmlns:sodipodi="http://sodipodi.sourceforge.net/DTD/sodipodi-0.dtd"
   xmlns="http://www.w3.org/2000/svg"
   xmlns:svg="http://www.w3.org/2000/svg">
  <sodipodi:namedview
     id="namedview1"
     pagecolor="#ffffff"
     bordercolor="#000000"
     borderopacity="0.25"
     inkscape:showpageshadow="2"
     inkscape:pageopacity="0.0"
     inkscape:pagecheckerboard="0"
     inkscape:deskcolor="#d1d1d1"
     inkscape:document-units="mm"
     inkscape:zoom="0.78313709"
     inkscape:cx="539.49686"
     inkscape:cy="538.8584"
     inkscape:window-width="1920"
     inkscape:window-height="1052"
     inkscape:window-x="0"
     inkscape:window-y="0"
     inkscape:window-maximized="1"
     inkscape:current-layer="Layer_1" />
  <!-- Generator: Adobe Illustrator 29.4.0, SVG Export Plug-In . SVG Version: 2.1.0 Build 152)  -->
  <defs
     id="defs1">
    <style
       id="style1">
      .st0 {
        fill: none;
        stroke: #ed1c24;
        stroke-miterlimit: 10;
      }
    </style>
  </defs>
  <path
     class="st0"
     d="m 38.64718,31.152525 c 0,4.142154 -3.352501,7.494655 -7.494655,7.494655 -4.142155,0 -7.494655,-3.352501 -7.494655,-7.494655 H 0.17626201 V 0.17626201 H 31.152525 V 23.65787 c 4.142154,0 7.494655,3.356026 7.494655,7.494655 z"
     id="path2"
     style="stroke-width:0.352524" />
  <path
     class="st0"
     d="m 284.97079,253.97547 v 30.97626 h -30.97627 v -23.48161 c -4.13862,0 -7.49465,-3.35602 -7.49465,-7.49465 0,-4.13863 3.35603,-7.49465 7.49465,-7.49465 4.13863,0 7.49466,3.35602 7.49466,7.49465 z"
     id="path3"
     style="stroke-width:0.352524" />
  <path
     class="st0"
     d="M 284.93465,0.20222899 V 31.178492 h -23.4816 c 0,4.142154 -3.35603,7.494655 -7.49466,7.494655 -4.13863,0 -7.49465,-3.352501 -7.49465,-7.494655 0,-4.142154 3.35602,-7.494655 7.49465,-7.494655 V 0.20222899 Z"
     id="path4"
     style="stroke-width:0.352524" />
  <path
     class="st0"
     d="m 38.64718,253.99337 c 0,4.13863 -3.352501,7.49466 -7.494655,7.49466 v 23.4816 H 0.17626201 V 253.99337 H 23.65787 c 0,-4.13863 3.356026,-7.49465 7.494655,-7.49465 4.138629,0 7.494655,3.35602 7.494655,7.49465 z"
     id="path5"
     style="stroke-width:0.352524" />
  <rect
     style="fill:none;stroke:#000000;stroke-width:0.352524;stroke-opacity:1"
     id="rect6"
     width="284.77179"
     height="284.77179"
     x="0.25978038"
     y="0.17626201" />
</svg>
